<svg width="64" height="64" xmlns="http://www.w3.org/2000/svg" xmlns:xlink="http://www.w3.org/1999/xlink">
  <defs/>
  <g>
    <path stroke="none" fill="#FFFFFF" d="M41 16.8 L41 21.25 41.2 21.75 42 22 42.75 21.75 42.75 21.8 43 21.25 43 16.8 42.95 16.55 42.75 16.25 42.75 16.3 Q42.45 16 42 16 41.55 16 41.2 16.3 L41.25 16.2 41.05 16.55 41 16.8 M39.85 14.8 L39.9 14.75 Q40.75 14 42 14 43.15 14 44.05 14.75 L44.1 14.8 Q44.9 15.55 45 16.55 L45 16.8 45 21.25 Q45 22.35 44.1 23.25 L44.05 23.3 Q43.15 24 42 24 40.75 24 39.9 23.3 L39.85 23.2 Q39 22.35 39 21.25 L39 16.8 39 16.55 Q39.1 15.55 39.85 14.8 M51 19 Q51.4 19 51.7 19.3 L52 20 52 21.25 Q52 22.35 51.1 23.25 L51.05 23.3 Q50.15 24 49 24 47.75 24 46.9 23.3 L46.85 23.2 Q46 22.35 46 21.25 L46 16.8 46 16.55 Q46.1 15.55 46.85 14.8 L46.9 14.75 Q47.75 14 49 14 50.15 14 51.05 14.75 L51.1 14.8 Q51.9 15.55 52 16.55 L52 16.8 51.7 17.5 Q51.4 17.8 51 17.8 L50.3 17.5 Q50 17.2 50 16.8 L49.95 16.55 49.75 16.25 49.75 16.3 Q49.45 16 49 16 48.55 16 48.2 16.3 L48.25 16.2 48.05 16.55 48 16.8 48 21.25 48.2 21.75 49 22 49.75 21.75 49.75 21.8 50 21.25 50 21 Q49.6 21 49.3 20.7 49 20.4 49 20 49 19.6 49.3 19.3 49.6 19 50 19 L51 19 M48 33 L48 47 Q48 48.25 47.15 49.15 46.25 50 45 50 L19 50 Q17.75 50 16.9 49.15 16 48.25 16 47 L16 33 Q16 31.75 16.9 30.9 17.75 30 19 30 L45 30 Q46.25 30 47.15 30.9 48 31.75 48 33 M13 16.8 L13 19 15 19 15 16.8 14.95 16.55 14.75 16.25 14.75 16.3 Q14.45 16 14 16 13.55 16 13.2 16.3 L13.25 16.2 13.05 16.55 13 16.8 M11 16.8 L11 16.55 Q11.1 15.55 11.85 14.8 L11.9 14.75 Q12.75 14 14 14 15.15 14 16.05 14.75 L16.1 14.8 Q16.9 15.55 17 16.55 L17 16.8 17 23 16.7 23.7 16 24 15.3 23.7 Q15 23.4 15 23 L15 21 13 21 13 23 12.7 23.7 12 24 11.3 23.7 Q11 23.4 11 23 L11 16.8 M32 15 Q32 14.6 32.3 14.3 32.6 14 33 14 33.4 14 33.7 14.3 L34 15 34 22 37 22 Q37.4 22 37.7 22.3 L38 23 37.7 23.7 37 24 33 24 32.3 23.7 Q32 23.4 32 23 L32 15 M24 23 L23.8 23.65 23.25 24 22.6 23.9 22.1 23.45 20 19.25 20 23 19.7 23.7 19 24 Q18.6 24 18.3 23.7 18 23.4 18 23 L18 15 18.25 14.4 18.8 14.05 19.45 14.1 19.9 14.55 22 18.75 22 15 Q22 14.6 22.3 14.3 22.6 14 23 14 23.4 14 23.7 14.3 L24 15 24 23 M27 16.8 L27 19 29 19 29 16.8 28.95 16.55 28.75 16.25 28.75 16.3 Q28.45 16 28 16 27.55 16 27.2 16.3 L27.25 16.2 27.05 16.55 27 16.8 M25 16.8 L25 16.55 Q25.1 15.55 25.85 14.8 L25.9 14.75 Q26.75 14 28 14 29.15 14 30.05 14.75 L30.1 14.8 Q30.9 15.55 31 16.55 L31 16.8 31 23 30.7 23.7 Q30.4 24 30 24 L29.3 23.7 Q29 23.4 29 23 L29 21 27 21 27 23 26.7 23.7 26 24 Q25.6 24 25.3 23.7 25 23.4 25 23 L25 16.8"/>
  </g>
</svg>